<?xml version="1.0" standalone="no"?>
<!DOCTYPE svg PUBLIC "-//W3C//DTD SVG 20010904//EN"
 "http://www.w3.org/TR/2001/REC-SVG-20010904/DTD/svg10.dtd">
<svg version="1.0" xmlns="http://www.w3.org/2000/svg"
 width="300.000000pt" height="300.000000pt" viewBox="0 0 300.000000 300.000000"
 preserveAspectRatio="xMidYMid meet">
<metadata>
Created by potrace 1.10, written by Peter Selinger 2001-2011
</metadata>
<g transform="translate(0.000000,300.000000) scale(0.100000,-0.100000)"
fill="#000000" stroke="none">
<path d="M957 2292 c-15 -16 -17 -53 -17 -305 0 -268 1 -288 19 -306 19 -19
18 -20 -30 -67 -27 -27 -49 -56 -49 -64 0 -20 41 -60 61 -60 9 0 113 90 233
201 l218 200 57 -53 c55 -50 57 -54 40 -72 -16 -17 -18 -17 -43 -1 -19 12 -32
15 -46 9 -29 -14 -230 -204 -230 -218 0 -22 40 -66 60 -66 11 0 55 34 99 75
44 41 84 75 88 75 5 -1 44 -34 88 -75 44 -41 87 -75 96 -75 21 0 59 42 59 65
0 10 -23 40 -52 66 -44 41 -50 50 -39 63 8 9 17 16 22 16 5 0 61 -47 125 -105
64 -58 124 -105 134 -105 20 0 60 44 60 65 0 8 -51 60 -114 117 -104 94 -127
123 -99 123 5 0 86 -69 178 -152 93 -84 176 -153 185 -153 20 0 60 41 60 61 0
8 -22 36 -49 63 -48 47 -49 48 -30 67 18 18 19 38 19 307 0 267 -1 290 -18
305 -17 15 -69 17 -544 17 -496 0 -526 -1 -541 -18z m1073 -302 c0 -283 0
-290 -20 -290 -20 0 -20 7 -20 270 l0 270 -490 0 -490 0 0 -270 c0 -263 0
-270 -20 -270 -20 0 -20 7 -20 290 l0 290 530 0 530 0 0 -290z m-70 -31 l0
-241 -52 47 c-170 153 -197 175 -212 175 -9 0 -33 -16 -55 -35 -21 -19 -44
-35 -50 -35 -7 0 -53 36 -102 80 -49 44 -94 80 -99 80 -9 0 -208 -175 -255
-224 -6 -6 -30 -29 -53 -51 l-42 -39 0 242 0 242 460 0 460 0 0 -241z m-466
-50 l99 -90 51 50 51 50 202 -182 c199 -179 202 -182 183 -201 -22 -22 -4 -36
-233 173 -76 69 -142 127 -146 129 -3 1 -21 -10 -39 -25 l-33 -28 129 -115
c120 -107 129 -116 114 -132 -8 -10 -18 -18 -22 -18 -4 0 -63 51 -132 114
l-124 114 -43 -37 -44 -37 66 -59 c56 -51 64 -61 54 -77 -7 -10 -16 -18 -21
-18 -5 0 -48 36 -97 80 -48 44 -91 80 -96 80 -5 0 -27 -18 -48 -41 -22 -22
-62 -59 -88 -81 -45 -38 -49 -40 -66 -24 -18 16 -14 21 93 120 l111 104 28
-26 27 -26 40 40 40 40 -80 72 -80 73 -182 -169 c-291 -268 -266 -249 -287
-226 -18 19 -13 24 223 241 132 122 243 222 246 222 3 0 50 -40 104 -90z"/>
<path d="M962 1474 c-20 -14 -22 -23 -22 -122 0 -81 4 -113 16 -130 l15 -22
523 0 c435 0 525 2 542 14 16 12 20 29 22 111 5 112 -1 140 -29 155 -16 9 -26
8 -45 -5 -22 -14 -24 -22 -24 -90 l0 -75 -460 0 -460 0 0 70 c0 57 -4 74 -20
90 -24 24 -29 24 -58 4z m48 -104 l0 -90 490 0 490 0 0 90 c0 83 1 90 20 90
19 0 20 -7 20 -110 l0 -110 -530 0 -530 0 0 110 c0 103 1 110 20 110 19 0 20
-7 20 -90z"/>
</g>
</svg>
